<svg width="24" height="25" viewBox="0 0 24 25" fill="none" xmlns="http://www.w3.org/2000/svg">
<path d="M12 6.5V9.5L16 5.5L12 1.5V4.5C9.87827 4.5 7.84344 5.34285 6.34315 6.84315C4.84285 8.34344 4 10.3783 4 12.5C4 14.07 4.46 15.53 5.24 16.76L6.7 15.3C6.23846 14.439 5.99793 13.4769 6 12.5C6 10.9087 6.63214 9.38258 7.75736 8.25736C8.88258 7.13214 10.4087 6.5 12 6.5ZM18.76 8.24L17.3 9.7C17.74 10.54 18 11.5 18 12.5C18 14.0913 17.3679 15.6174 16.2426 16.7426C15.1174 17.8679 13.5913 18.5 12 18.5V15.5L8 19.5L12 23.5V20.5C14.1217 20.5 16.1566 19.6571 17.6569 18.1569C19.1571 16.6566 20 14.6217 20 12.5C20 10.93 19.54 9.47 18.76 8.24Z" fill="#545454"/>
</svg>
