<svg width="36" height="36" viewBox="0 0 36 36" fill="none" xmlns="http://www.w3.org/2000/svg">
<g opacity="0.5">
<path d="M6 30C5.175 30 4.4685 29.706 3.8805 29.118C3.2925 28.53 2.999 27.824 3 27V9C3 8.175 3.294 7.4685 3.882 6.8805C4.47 6.2925 5.176 5.999 6 6H30C30.825 6 31.5315 6.294 32.1195 6.882C32.7075 7.47 33.001 8.176 33 9V27C33 27.825 32.706 28.5315 32.118 29.1195C31.53 29.7075 30.824 30.001 30 30H6ZM18 19.2375C18.125 19.2375 18.2565 19.2185 18.3945 19.1805C18.5325 19.1425 18.6635 19.0865 18.7875 19.0125L29.4 12.375C29.6 12.25 29.75 12.0935 29.85 11.9055C29.95 11.7175 30 11.5115 30 11.2875C30 10.7875 29.7875 10.4125 29.3625 10.1625C28.9375 9.9125 28.5 9.925 28.05 10.2L18 16.5L7.95 10.2C7.5 9.925 7.0625 9.919 6.6375 10.182C6.2125 10.445 6 10.8135 6 11.2875C6 11.5375 6.05 11.7565 6.15 11.9445C6.25 12.1325 6.4 12.276 6.6 12.375L17.2125 19.0125C17.3375 19.0875 17.469 19.144 17.607 19.182C17.745 19.22 17.876 19.2385 18 19.2375Z" fill="#FF6600"/>
</g>
</svg>
