<svg width="32" height="32" viewBox="0 0 32 32" fill="none" xmlns="http://www.w3.org/2000/svg">
<path d="M24.6429 5H7.35714C6.0558 5 5 6.0558 5 7.35714V24.6429C5 25.9442 6.0558 27 7.35714 27H24.6429C25.9442 27 27 25.9442 27 24.6429V7.35714C27 6.0558 25.9442 5 24.6429 5ZM22.2415 12.7982C22.2513 12.9357 22.2513 13.0781 22.2513 13.2156C22.2513 17.4732 19.0103 22.379 13.0879 22.379C11.2612 22.379 9.56696 21.8487 8.14286 20.9353C8.40313 20.9647 8.65357 20.9746 8.91875 20.9746C10.4263 20.9746 11.8112 20.4638 12.9161 19.5996C11.5018 19.5701 10.3134 18.642 9.9058 17.3652C10.4018 17.4388 10.8487 17.4388 11.3594 17.3062C9.88616 17.0067 8.78125 15.7103 8.78125 14.1437V14.1045C9.20848 14.3451 9.70937 14.4924 10.2348 14.5121C9.79307 14.2182 9.43093 13.8196 9.18072 13.3517C8.93052 12.8839 8.80002 12.3614 8.80089 11.8308C8.80089 11.2317 8.95804 10.6817 9.23795 10.2054C10.8241 12.1598 13.2058 13.4366 15.8772 13.5741C15.4205 11.3888 17.0558 9.61607 19.0201 9.61607C19.9482 9.61607 20.783 10.004 21.3723 10.6326C22.0991 10.4951 22.7964 10.225 23.4152 9.8567C23.1746 10.6031 22.6688 11.2317 22.0009 11.6295C22.6491 11.5607 23.2777 11.379 23.8571 11.1286C23.4201 11.7719 22.8701 12.3415 22.2415 12.7982Z" fill="#009BEC"/>
</svg>
