<svg width="36" height="36" viewBox="0 0 36 36" fill="none" xmlns="http://www.w3.org/2000/svg">
<g opacity="0.5">
<path d="M19.1158 18.1501C18.8678 18.4001 18.5951 18.4626 18.2976 18.3376C18.0001 18.2126 17.8513 17.9751 17.8513 17.6251V5.92505C17.8513 5.50005 17.9941 5.14355 18.2797 4.85555C18.5654 4.56755 18.9184 4.42405 19.3389 4.42505H29.7521C30.1736 4.42505 30.5272 4.56905 30.8128 4.85705C31.0984 5.14505 31.2407 5.50105 31.2397 5.92505V13.4251C31.2397 13.8501 31.0969 14.2066 30.8113 14.4946C30.5257 14.7826 30.1726 14.9261 29.7521 14.9251H22.3141L19.1158 18.1501ZM29.6778 31.5001C26.4794 31.5001 23.3619 30.7811 20.3252 29.3431C17.2885 27.9051 14.5984 26.0051 12.255 23.6431C9.91148 21.2811 8.02719 18.5686 6.60206 15.5056C5.17694 12.4426 4.46388 9.29905 4.46289 6.07505C4.46289 5.62505 4.61165 5.25005 4.90917 4.95005C5.20669 4.65005 5.57859 4.50005 6.02487 4.50005H12.0497C12.3968 4.50005 12.7067 4.61255 12.9794 4.83755C13.2521 5.06255 13.4133 5.35005 13.4629 5.70005L14.4298 10.9501C14.4794 11.3001 14.473 11.6191 14.4105 11.9071C14.348 12.1951 14.2057 12.4511 13.9836 12.6751L10.4133 16.3501C11.4546 18.1501 12.7563 19.8376 14.3183 21.4126C15.8802 22.9876 17.6034 24.3501 19.4877 25.5001L22.9835 21.9751C23.2067 21.7501 23.4983 21.5816 23.8583 21.4696C24.2183 21.3576 24.5713 21.3261 24.9174 21.3751L30.0497 22.4251C30.3968 22.5001 30.6819 22.6691 30.905 22.9321C31.1282 23.1951 31.2397 23.5011 31.2397 23.8501V29.9251C31.2397 30.3751 31.091 30.7501 30.7935 31.0501C30.4959 31.3501 30.124 31.5001 29.6778 31.5001Z" fill="#FF6600"/>
</g>
</svg>
