<svg width="32" height="32" viewBox="0 0 32 32" fill="none" xmlns="http://www.w3.org/2000/svg">
<path d="M24.9998 5.30005H6.7998C5.8998 5.30005 5.2998 5.80005 5.2998 6.60005V24.9C5.2998 25.7 5.8998 26.6 6.7998 26.6H24.9998C25.8998 26.5 26.5998 25.8 26.6998 24.9V6.70005C26.6998 5.80005 25.8998 5.30005 24.9998 5.30005ZM11.6998 23.3H8.6998V13.3H11.6998V23.3ZM9.9998 11.7C8.9998 11.7 8.1998 10.9 8.1998 9.90005C8.1998 8.90005 8.9998 8.10005 9.9998 8.10005C10.9998 8.10005 11.7998 8.90005 11.7998 9.90005C11.7998 10.9 10.9998 11.7 9.9998 11.7ZM23.2998 23.3H20.2998V18.3C20.2998 17.1 20.3998 15.6 18.7998 15.6C17.1998 15.6 16.9998 16.9 16.9998 18.2V23.3H13.6998V13.3H16.6998V14.6C17.2998 13.6 18.3998 12.9 19.6998 12.9C22.8998 12.9 23.4998 14.9 23.4998 17.7V23.3H23.2998Z" fill="#0178B6"/>
</svg>
