<svg width="32" height="32" viewBox="0 0 32 32" fill="none" xmlns="http://www.w3.org/2000/svg">
<path d="M19.9998 26.7001H25.4998C26.1998 26.7001 26.6998 26.2001 26.6998 25.5V6.50005C26.6998 5.80005 26.1998 5.30005 25.4998 5.30005H6.4998C5.7998 5.30005 5.2998 5.80005 5.2998 6.50005V25.5C5.2998 26.2001 5.7998 26.7001 6.4998 26.7001H16.2998V18.4H13.5998V15H16.2998V12.7C16.2998 9.90005 17.9998 8.40005 20.4998 8.40005C21.2998 8.40005 22.1998 8.40005 22.9998 8.50005V11.4H21.3998C20.0998 11.4 19.9998 12 19.9998 13V15H22.8998L22.4998 18.3H19.9998V26.7001Z" fill="#3C5A99"/>
</svg>
