<svg width="32" height="32" viewBox="0 0 32 32" fill="none" xmlns="http://www.w3.org/2000/svg">
<path d="M15.9998 5.30005C10.0998 5.30005 5.2998 10.1 5.2998 16C5.2998 20.4 7.9998 24.3 12.0998 25.9C11.9998 24.9 11.9998 23.9 12.0998 22.8C12.2998 22 13.3998 17.5 13.3998 17.5C13.1998 17 13.0998 16.5 13.0998 15.9C13.0998 14.4 13.9998 13.3 14.9998 13.3C15.8998 13.3 16.2998 14 16.2998 14.8C16.2998 15.7 15.6998 17.1 15.3998 18.4C15.1998 19.2 15.6998 20.1 16.4998 20.3C16.5998 20.3 16.7998 20.4 16.9998 20.3C18.8998 20.3 20.3998 18.3 20.3998 15.4C20.3998 12.8 18.5998 11.1 15.8998 11.1C12.8998 11.1 11.0998 13.4 11.0998 15.7C11.0998 16.6 11.3998 17.4 11.8998 18.1C11.9998 18.2 11.9998 18.3 11.9998 18.4C11.8998 18.7 11.6998 19.5 11.6998 19.6C11.6998 19.8 11.4998 19.8 11.2998 19.7C9.9998 19.1 9.0998 17.1 9.0998 15.6C9.0998 12.2 11.4998 9.10005 16.0998 9.10005C19.7998 9.10005 22.6998 11.7 22.6998 15.3C22.6998 19 20.3998 21.9 17.1998 21.9C16.0998 21.9 15.0998 21.3 14.7998 20.7C14.7998 20.7 14.2998 22.7001 14.0998 23.2001C13.7998 24.2001 13.2998 25.1 12.7998 26C18.3998 27.7001 24.3998 24.6 26.1998 19C27.8998 13.4 24.7998 7.40005 19.1998 5.60005C18.0998 5.50005 17.0998 5.30005 15.9998 5.30005Z" fill="#E41E25"/>
</svg>
