<svg width="32" height="32" viewBox="0 0 32 32" fill="none" xmlns="http://www.w3.org/2000/svg">
<path d="M15.9998 7.30005C18.7998 7.30005 19.1998 7.30005 20.2998 7.40005C20.9998 7.40005 21.5998 7.50005 22.2998 7.80005C23.1998 8.20005 23.9998 8.90005 24.2998 9.80005C24.4998 10.4 24.6998 11.1 24.6998 11.8C24.7998 12.9 24.7998 13.3 24.7998 16.1C24.7998 18.9 24.7998 19.3 24.6998 20.4C24.6998 21.1 24.5998 21.7 24.2998 22.4C23.8998 23.3 23.1998 24.1 22.2998 24.4C21.6998 24.6 20.9998 24.8 20.2998 24.8C19.1998 24.9 18.7998 24.9 15.9998 24.9C13.1998 24.9 12.7998 24.9 11.6998 24.8C10.9998 24.8 10.3998 24.7 9.6998 24.4C8.7998 24 7.9998 23.3 7.6998 22.4C7.4998 21.8 7.2998 21.1 7.2998 20.4C7.1998 19.3 7.1998 18.9 7.1998 16.1C7.1998 13.3 7.1998 12.9 7.2998 11.8C7.2998 11.1 7.3998 10.5 7.6998 9.80005C8.0998 8.90005 8.7998 8.10005 9.6998 7.80005C10.2998 7.60005 10.9998 7.40005 11.6998 7.40005C12.7998 7.30005 13.1998 7.30005 15.9998 7.30005ZM15.9998 5.30005C13.0998 5.30005 12.6998 5.30005 11.5998 5.40005C10.6998 5.40005 9.7998 5.60005 8.9998 5.90005C7.5998 6.40005 6.3998 7.60005 5.8998 9.00005C5.5998 9.80005 5.3998 10.7 5.3998 11.6C5.2998 12.7 5.2998 13.1 5.2998 16C5.2998 18.9 5.2998 19.3 5.3998 20.4C5.3998 21.3 5.5998 22.2001 5.8998 23C6.4998 24.4 7.5998 25.6 8.9998 26.1C9.7998 26.4 10.6998 26.6 11.5998 26.6C12.6998 26.7 13.0998 26.7001 15.9998 26.7001C18.8998 26.7001 19.2998 26.7 20.3998 26.6C21.2998 26.6 22.1998 26.4 22.9998 26.1C24.3998 25.5 25.5998 24.4 26.0998 23C26.3998 22.2001 26.5998 21.3 26.5998 20.4C26.6998 19.3 26.6998 18.9 26.6998 16C26.6998 13.1 26.6998 12.7 26.5998 11.6C26.5998 10.7 26.3998 9.80005 26.0998 9.00005C25.4998 7.60005 24.3998 6.40005 22.9998 5.90005C22.1998 5.60005 21.2998 5.40005 20.3998 5.40005C19.2998 5.30005 18.8998 5.30005 15.9998 5.30005ZM15.9998 10.5C12.9998 10.5 10.4998 13 10.4998 16C10.4998 19 12.9998 21.5 15.9998 21.5C18.9998 21.5 21.4998 19 21.4998 16C21.4998 13 18.9998 10.5 15.9998 10.5ZM15.9998 19.6C13.9998 19.6 12.3998 18 12.3998 16C12.3998 14 13.9998 12.4 15.9998 12.4C17.9998 12.4 19.5998 14 19.5998 16C19.5998 18 17.9998 19.6 15.9998 19.6ZM21.6998 9.00005C22.3998 9.00005 22.9998 9.60005 22.9998 10.3C22.9998 11 22.3998 11.6 21.6998 11.6C20.9998 11.6 20.3998 11 20.3998 10.3C20.3998 9.60005 20.9998 9.00005 21.6998 9.00005Z" fill="black"/>
</svg>
