<svg width="60" height="60" viewBox="0 0 60 60" fill="none" xmlns="http://www.w3.org/2000/svg">
<path d="M30.0001 15C28.6251 15 27.4476 14.51 26.4676 13.53C25.4876 12.55 24.9984 11.3734 25.0001 10C25.0001 8.62503 25.4901 7.44753 26.4701 6.46753C27.4501 5.48753 28.6268 4.99836 30.0001 5.00003C31.3751 5.00003 32.5526 5.49003 33.5326 6.47003C34.5126 7.45003 35.0018 8.6267 35.0001 10C35.0001 11.375 34.5101 12.5525 33.5301 13.5325C32.5501 14.5125 31.3734 15.0017 30.0001 15ZM25.0001 55C24.2918 55 23.6976 54.76 23.2176 54.28C22.7376 53.8 22.4984 53.2067 22.5001 52.5V21.9375C19.1668 21.0625 16.4268 19.3234 14.2801 16.72C12.1334 14.1167 10.7901 11.1467 10.2501 7.81003C10.1251 7.06003 10.3234 6.40336 10.8451 5.84003C11.3668 5.2767 12.0434 4.9967 12.8751 5.00003C13.4584 5.00003 13.9693 5.20836 14.4076 5.62503C14.8459 6.0417 15.1059 6.5417 15.1876 7.12503C15.6459 10.0834 16.9376 12.5525 19.0626 14.5325C21.1876 16.5125 23.7918 17.5017 26.8751 17.5H33.1251C34.3751 17.5 35.5418 17.7292 36.6251 18.1875C37.7084 18.6459 38.6876 19.3125 39.5626 20.1875L49.1251 29.75C49.5834 30.2084 49.8126 30.7917 49.8126 31.5C49.8126 32.2084 49.5834 32.7917 49.1251 33.25C48.6668 33.7084 48.0834 33.9375 47.3751 33.9375C46.6668 33.9375 46.0834 33.7084 45.6251 33.25L37.5001 25.125V52.5C37.5001 53.2084 37.2601 53.8025 36.7801 54.2825C36.3001 54.7625 35.7068 55.0017 35.0001 55C34.2918 55 33.6976 54.76 33.2176 54.28C32.7376 53.8 32.4984 53.2067 32.5001 52.5V40H27.5001V52.5C27.5001 53.2084 27.2601 53.8025 26.7801 54.2825C26.3001 54.7625 25.7068 55.0017 25.0001 55Z" fill="#FF6600" fill-opacity="0.5"/>
</svg>
