<svg width="60" height="60" viewBox="0 0 60 60" fill="none" xmlns="http://www.w3.org/2000/svg">
<path d="M36.25 29.375C37.125 29.375 37.865 29.0725 38.47 28.4675C39.075 27.8625 39.3767 27.1233 39.375 26.25C39.375 25.375 39.0725 24.635 38.4675 24.03C37.8625 23.425 37.1233 23.1233 36.25 23.125C35.375 23.125 34.635 23.4275 34.03 24.0325C33.425 24.6375 33.1233 25.3767 33.125 26.25C33.125 27.125 33.4275 27.865 34.0325 28.47C34.6375 29.075 35.3767 29.3767 36.25 29.375ZM23.75 29.375C24.625 29.375 25.365 29.0725 25.97 28.4675C26.575 27.8625 26.8767 27.1233 26.875 26.25C26.875 25.375 26.5725 24.635 25.9675 24.03C25.3625 23.425 24.6233 23.1233 23.75 23.125C22.875 23.125 22.135 23.4275 21.53 24.0325C20.925 24.6375 20.6233 25.3767 20.625 26.25C20.625 27.125 20.9275 27.865 21.5325 28.47C22.1375 29.075 22.8767 29.3767 23.75 29.375ZM30 42.5C32.5 42.5 34.7608 41.8125 36.7825 40.4375C38.8042 39.0625 40.2933 37.25 41.25 35H18.75C19.7083 37.25 21.1983 39.0625 23.22 40.4375C25.2417 41.8125 27.5017 42.5 30 42.5ZM30 52.5C26.875 52.5 23.9475 51.9058 21.2175 50.7175C18.4875 49.5292 16.1125 47.9258 14.0925 45.9075C12.0725 43.8858 10.4692 41.5108 9.2825 38.7825C8.09583 36.0542 7.50167 33.1267 7.5 30C7.5 26.875 8.09417 23.9475 9.2825 21.2175C10.4708 18.4875 12.0742 16.1125 14.0925 14.0925C16.1142 12.0725 18.4892 10.4692 21.2175 9.2825C23.9458 8.09583 26.8733 7.50167 30 7.5C33.125 7.5 36.0525 8.09417 38.7825 9.2825C41.5125 10.4708 43.8875 12.0742 45.9075 14.0925C47.9275 16.1142 49.5317 18.4892 50.72 21.2175C51.9083 23.9458 52.5017 26.8733 52.5 30C52.5 33.125 51.9058 36.0525 50.7175 38.7825C49.5292 41.5125 47.9258 43.8875 45.9075 45.9075C43.8858 47.9275 41.5108 49.5317 38.7825 50.72C36.0542 51.9083 33.1267 52.5017 30 52.5ZM31 21.25C31.7083 21.25 32.5108 21.1142 33.4075 20.8425C34.3042 20.5708 34.7517 19.9567 34.75 19C34.75 18.5 34.5833 18.0625 34.25 17.6875C33.9167 17.3125 33.5 17.125 33 17.125C32.6667 17.125 32.3442 17.1875 32.0325 17.3125C31.7208 17.4375 31.3767 17.5 31 17.5C30.125 17.5 29.3858 17.1983 28.7825 16.595C28.1792 15.9917 27.8767 15.2517 27.875 14.375C27.875 13.9167 27.9483 13.5308 28.095 13.2175C28.2417 12.9042 28.46 12.6858 28.75 12.5625C27.9583 12.6458 27.1875 12.75 26.4375 12.875C25.6875 13 24.9583 13.2083 24.25 13.5C24.2083 13.625 24.1767 13.7708 24.155 13.9375C24.1333 14.1042 24.1233 14.25 24.125 14.375C24.125 16.25 24.8025 17.865 26.1575 19.22C27.5125 20.575 29.1267 21.2517 31 21.25Z" fill="#FF6600" fill-opacity="0.5"/>
</svg>
