<svg width="60" height="60" viewBox="0 0 60 60" fill="none" xmlns="http://www.w3.org/2000/svg">
<path d="M24.4375 30C22.9375 30 21.6875 29.4375 20.6875 28.3125C19.6875 27.1875 19.2917 25.875 19.5 24.375L20.3125 18.25C20.6458 15.875 21.7292 13.9058 23.5625 12.3425C25.3958 10.7792 27.5417 9.99834 30 10C32.4583 10 34.6042 10.7817 36.4375 12.345C38.2708 13.9083 39.3542 15.8767 39.6875 18.25L40.5 24.375C40.7083 25.875 40.3125 27.1875 39.3125 28.3125C38.3125 29.4375 37.0625 30 35.5625 30H24.4375ZM15 50C13.625 50 12.4475 49.51 11.4675 48.53C10.4875 47.55 9.99834 46.3733 10 45V43C10 41.5833 10.365 40.2808 11.095 39.0925C11.825 37.9042 12.7933 36.9983 14 36.375C16.5833 35.0833 19.2083 34.1142 21.875 33.4675C24.5417 32.8208 27.25 32.4983 30 32.5C32.75 32.5 35.4583 32.8233 38.125 33.47C40.7917 34.1167 43.4167 35.085 46 36.375C47.2083 37 48.1775 37.9067 48.9075 39.095C49.6375 40.2833 50.0017 41.585 50 43V45C50 46.375 49.51 47.5525 48.53 48.5325C47.55 49.5125 46.3733 50.0017 45 50H15Z" fill="#FF6600" fill-opacity="0.5"/>
</svg>
