<svg width="60" height="60" viewBox="0 0 60 60" fill="none" xmlns="http://www.w3.org/2000/svg">
<path d="M15 55C13.625 55 12.4475 54.51 11.4675 53.53C10.4875 52.55 9.99834 51.3733 10 50V20C10 18.625 10.49 17.4475 11.47 16.4675C12.45 15.4875 13.6267 14.9983 15 15H20C20 12.25 20.9792 9.89583 22.9375 7.9375C24.8958 5.97917 27.25 5 30 5C32.75 5 35.1042 5.97917 37.0625 7.9375C39.0208 9.89583 40 12.25 40 15H45C46.375 15 47.5525 15.49 48.5325 16.47C49.5125 17.45 50.0017 18.6267 50 20V50C50 51.375 49.51 52.5525 48.53 53.5325C47.55 54.5125 46.3733 55.0017 45 55H15ZM22.5 27.5C23.2083 27.5 23.8025 27.26 24.2825 26.78C24.7625 26.3 25.0017 25.7067 25 25V20H20V25C20 25.7083 20.24 26.3025 20.72 26.7825C21.2 27.2625 21.7933 27.5017 22.5 27.5ZM25 15H35C35 13.625 34.51 12.4475 33.53 11.4675C32.55 10.4875 31.3733 9.99833 30 10C28.625 10 27.4475 10.49 26.4675 11.47C25.4875 12.45 24.9983 13.6267 25 15ZM37.5 27.5C38.2083 27.5 38.8025 27.26 39.2825 26.78C39.7625 26.3 40.0017 25.7067 40 25V20H35V25C35 25.7083 35.24 26.3025 35.72 26.7825C36.2 27.2625 36.7933 27.5017 37.5 27.5Z" fill="#FF6600" fill-opacity="0.5"/>
</svg>
