<svg width="60" height="60" viewBox="0 0 60 60" fill="none" xmlns="http://www.w3.org/2000/svg">
<g opacity="0.5">
<path d="M15 52.5C14.2917 52.5 13.6975 52.26 13.2175 51.78C12.7375 51.3 12.4983 50.7067 12.5 50V44.875C11.75 44.0417 11.1458 43.1142 10.6875 42.0925C10.2292 41.0708 10 39.9567 10 38.75V15C10 11.5417 11.6042 9.01 14.8125 7.405C18.0208 5.8 23.0833 4.99834 30 5C37.1667 5 42.2917 5.77084 45.375 7.3125C48.4583 8.85417 50 11.4167 50 15V38.75C50 39.9583 49.7708 41.0733 49.3125 42.095C48.8542 43.1167 48.25 44.0433 47.5 44.875V50C47.5 50.7083 47.26 51.3025 46.78 51.7825C46.3 52.2625 45.7067 52.5017 45 52.5H42.5C41.7917 52.5 41.1975 52.26 40.7175 51.78C40.2375 51.3 39.9983 50.7067 40 50V47.5H20V50C20 50.7083 19.76 51.3025 19.28 51.7825C18.8 52.2625 18.2067 52.5017 17.5 52.5H15ZM15 25H45V17.5H15V25ZM21.25 40C22.2917 40 23.1775 39.635 23.9075 38.905C24.6375 38.175 25.0017 37.29 25 36.25C25 35.2083 24.635 34.3225 23.905 33.5925C23.175 32.8625 22.29 32.4983 21.25 32.5C20.2083 32.5 19.3225 32.865 18.5925 33.595C17.8625 34.325 17.4983 35.21 17.5 36.25C17.5 37.2917 17.865 38.1775 18.595 38.9075C19.325 39.6375 20.21 40.0017 21.25 40ZM38.75 40C39.7917 40 40.6775 39.635 41.4075 38.905C42.1375 38.175 42.5017 37.29 42.5 36.25C42.5 35.2083 42.135 34.3225 41.405 33.5925C40.675 32.8625 39.79 32.4983 38.75 32.5C37.7083 32.5 36.8225 32.865 36.0925 33.595C35.3625 34.325 34.9983 35.21 35 36.25C35 37.2917 35.365 38.1775 36.095 38.9075C36.825 39.6375 37.71 40.0017 38.75 40Z" fill="#FF6600"/>
</g>
</svg>
