<svg width="36" height="36" viewBox="0 0 36 36" fill="none" xmlns="http://www.w3.org/2000/svg">
<path d="M36 27C36 28.0609 35.5786 29.0783 34.8284 29.8284C34.0783 30.5786 33.0609 31 32 31H4C2.93913 31 1.92172 30.5786 1.17157 29.8284C0.421427 29.0783 0 28.0609 0 27V9C0 7.93913 0.421427 6.92172 1.17157 6.17157C1.92172 5.42143 2.93913 5 4 5H32C33.0609 5 34.0783 5.42143 34.8284 6.17157C35.5786 6.92172 36 7.93913 36 9V27Z" fill="#E30917"/>
<path d="M16 24C14.4087 24 12.8826 23.3678 11.7574 22.2426C10.6321 21.1174 10 19.5913 10 18C10 16.4087 10.6321 14.8826 11.7574 13.7573C12.8826 12.6321 14.4087 12 16 12C17.31 12 18.52 12.425 19.507 13.138C18.8189 12.3552 17.9717 11.7281 17.0221 11.2986C16.0725 10.8691 15.0422 10.6469 14 10.647C12.0499 10.647 10.1796 11.4217 8.80065 12.8006C7.42169 14.1796 6.647 16.0498 6.647 18C6.64687 18.9657 6.83697 19.9219 7.20643 20.8142C7.57589 21.7064 8.11749 22.5171 8.80029 23.2C9.4831 23.8829 10.2937 24.4246 11.1859 24.7942C12.0781 25.1637 13.0343 25.354 14 25.354C16.195 25.354 18.16 24.387 19.507 22.862C18.4876 23.6023 17.2599 24.0006 16 24ZM19.913 18.23L22.353 18.792L22.573 21.285L23.861 19.139L26.301 19.7L24.657 17.812L25.944 15.665L23.641 16.645L21.997 14.756L22.217 17.25L19.913 18.23Z" fill="#EEEEEE"/>
</svg>
