<svg width="36" height="36" viewBox="0 0 36 36" fill="none" xmlns="http://www.w3.org/2000/svg">
<path d="M18 18C18.825 18 19.5315 17.706 20.1195 17.118C20.7075 16.53 21.001 15.824 21 15C21 14.175 20.706 13.4685 20.118 12.8805C19.53 12.2925 18.824 11.999 18 12C17.175 12 16.4685 12.294 15.8805 12.882C15.2925 13.47 14.999 14.176 15 15C15 15.825 15.294 16.5315 15.882 17.1195C16.47 17.7075 17.176 18.001 18 18ZM18 32.4375C17.8 32.4375 17.6 32.4 17.4 32.325C17.2 32.25 17.025 32.15 16.875 32.025C13.225 28.8 10.5 25.806 8.7 23.043C6.9 20.28 6 17.699 6 15.3C6 11.55 7.2065 8.5625 9.6195 6.3375C12.0325 4.1125 14.826 3 18 3C21.175 3 23.969 4.1125 26.382 6.3375C28.795 8.5625 30.001 11.55 30 15.3C30 17.7 29.1 20.2815 27.3 23.0445C25.5 25.8075 22.775 28.801 19.125 32.025C18.975 32.15 18.8 32.25 18.6 32.325C18.4 32.4 18.2 32.4375 18 32.4375Z" fill="#FF6600"/>
</svg>
