<svg width="24" height="25" viewBox="0 0 24 25" fill="none" xmlns="http://www.w3.org/2000/svg">
<path d="M18 3.5H6C4.3 3.5 3 4.8 3 6.5V18.5C3 20.2 4.3 21.5 6 21.5H18C19.7 21.5 21 20.2 21 18.5V6.5C21 4.8 19.7 3.5 18 3.5ZM12 9.5C13.7 9.5 15 10.8 15 12.5C15 14.2 13.7 15.5 12 15.5C10.3 15.5 9 14.2 9 12.5C9 10.8 10.3 9.5 12 9.5ZM15.8 7.5C15.8 6.8 16.4 6.3 17 6.3C17.6 6.3 18.2 6.9 18.2 7.5C18.2 8.1 17.7 8.7 17 8.7C16.3 8.7 15.8 8.2 15.8 7.5ZM18 19.5H6C5.4 19.5 5 19.1 5 18.5V12.5H7C7 15.3 9.2 17.5 12 17.5C14.8 17.5 17 15.3 17 12.5H19V18.5C19 19.1 18.6 19.5 18 19.5Z" fill="#FF6600"/>
</svg>
