<svg width="19" height="19" viewBox="0 0 19 19" fill="none" xmlns="http://www.w3.org/2000/svg">
<path fill-rule="evenodd" clip-rule="evenodd" d="M9.50002 3.16675C7.75044 3.16675 6.33335 4.58383 6.33335 6.33341C6.33335 8.083 7.75044 9.50008 9.50002 9.50008C11.2496 9.50008 12.6667 8.083 12.6667 6.33341C12.6667 4.58383 11.2496 3.16675 9.50002 3.16675ZM11.0834 6.33341C11.0834 5.46258 10.3709 4.75008 9.50002 4.75008C8.62919 4.75008 7.91669 5.46258 7.91669 6.33341C7.91669 7.20425 8.62919 7.91675 9.50002 7.91675C10.3709 7.91675 11.0834 7.20425 11.0834 6.33341ZM14.25 13.4584C14.0917 12.8963 11.6375 11.8751 9.50002 11.8751C7.36252 11.8751 4.90835 12.8963 4.75002 13.4663V14.2501H14.25V13.4584ZM3.16669 13.4584C3.16669 11.3526 7.38627 10.2917 9.50002 10.2917C11.6138 10.2917 15.8334 11.3526 15.8334 13.4584V15.8334H3.16669V13.4584Z" fill="white"/>
</svg>
