<svg width="30" height="30" viewBox="0 0 30 30" fill="none" xmlns="http://www.w3.org/2000/svg">
<path d="M13.25 17.25L10.5625 14.5625C10.3333 14.3333 10.0417 14.2188 9.6875 14.2188C9.33333 14.2188 9.04167 14.3333 8.8125 14.5625C8.58333 14.7917 8.46875 15.0833 8.46875 15.4375C8.46875 15.7917 8.58333 16.0833 8.8125 16.3125L12.375 19.875C12.625 20.125 12.9167 20.25 13.25 20.25C13.5833 20.25 13.875 20.125 14.125 19.875L21.1875 12.8125C21.4167 12.5833 21.5313 12.2917 21.5313 11.9375C21.5313 11.5833 21.4167 11.2917 21.1875 11.0625C20.9583 10.8333 20.6667 10.7187 20.3125 10.7187C19.9583 10.7187 19.6667 10.8333 19.4375 11.0625L13.25 17.25ZM15 27.5C13.2708 27.5 11.6458 27.1717 10.125 26.515C8.60417 25.8583 7.28125 24.9679 6.15625 23.8438C5.03125 22.7188 4.14083 21.3958 3.485 19.875C2.82917 18.3542 2.50083 16.7292 2.5 15C2.5 13.2708 2.82833 11.6458 3.485 10.125C4.14167 8.60417 5.03208 7.28125 6.15625 6.15625C7.28125 5.03125 8.60417 4.14083 10.125 3.485C11.6458 2.82917 13.2708 2.50083 15 2.5C16.7292 2.5 18.3542 2.82833 19.875 3.485C21.3958 4.14167 22.7188 5.03208 23.8438 6.15625C24.9688 7.28125 25.8596 8.60417 26.5162 10.125C27.1729 11.6458 27.5008 13.2708 27.5 15C27.5 16.7292 27.1717 18.3542 26.515 19.875C25.8583 21.3958 24.9679 22.7188 23.8438 23.8438C22.7188 24.9688 21.3958 25.8596 19.875 26.5162C18.3542 27.1729 16.7292 27.5008 15 27.5Z" fill="#FF6600"/>
</svg>
