<svg width="19" height="19" viewBox="0 0 19 19" fill="none" xmlns="http://www.w3.org/2000/svg">
<path fill-rule="evenodd" clip-rule="evenodd" d="M11.685 10.5054L16.2213 15.0417L15.0417 16.2213L10.5054 11.685C9.65833 12.2946 8.63708 12.6667 7.52083 12.6667C4.67875 12.6667 2.375 10.3629 2.375 7.52083C2.375 4.67875 4.67875 2.375 7.52083 2.375C10.3629 2.375 12.6667 4.67875 12.6667 7.52083C12.6667 8.63708 12.2946 9.65833 11.685 10.5054ZM7.52083 3.95833C5.54958 3.95833 3.95833 5.54958 3.95833 7.52083C3.95833 9.49208 5.54958 11.0833 7.52083 11.0833C9.49208 11.0833 11.0833 9.49208 11.0833 7.52083C11.0833 5.54958 9.49208 3.95833 7.52083 3.95833Z" fill="white"/>
</svg>
