<svg width="24" height="25" viewBox="0 0 24 25" fill="none" xmlns="http://www.w3.org/2000/svg">
<g clip-path="url(#clip0_286_559)">
<path d="M23.8425 7.47453C23.8425 5.36516 22.2909 3.66828 20.3737 3.66828C17.7769 3.54687 15.1284 3.5 12.4219 3.5H11.5781C8.87811 3.5 6.22498 3.54687 3.6281 3.66875C1.71561 3.66875 0.164042 5.375 0.164042 7.48437C0.0468549 9.15266 -0.00283263 10.8214 -2.01252e-05 12.4902C-0.00470763 14.1589 0.0484174 15.8292 0.159355 17.5011C0.159355 19.6105 1.71092 21.3214 3.62342 21.3214C6.35154 21.448 9.14998 21.5042 11.9953 21.4995C14.8453 21.5089 17.6359 21.4495 20.3672 21.3214C22.2844 21.3214 23.8359 19.6105 23.8359 17.5011C23.9484 15.8277 24 14.1589 23.9953 12.4855C24.0059 10.8167 23.955 9.14641 23.8425 7.47453ZM9.7031 17.0886V7.87766L16.5 12.4808L9.7031 17.0886Z" fill="#FF6600"/>
</g>
<defs>
<clipPath id="clip0_286_559">
<rect width="24" height="24" fill="white" transform="translate(0 0.5)"/>
</clipPath>
</defs>
</svg>
